<svg t="1630671755452" class="icon" viewBox="0 0 1434 1024" version="1.1" xmlns="http://www.w3.org/2000/svg" p-id="2297" data-spm-anchor-id="a313x.7781069.0.i1" width="16" height="16"><path d="M1311.47898367 148.50709473a64.46559732 64.46559732 0 0 0-56.93293185-56.45119263c-0.70071295 0-1.27004233-0.70071295-1.88316678-0.70071296s-1.182453-0.61312363-1.88316595-0.61312361l-1.182453-0.65691871H241.13985443a155.60208352 155.60208352 0 0 0-42.83108267 5.78088226l-1.88316678 0.70071296A92.49411787 92.49411787 0 0 0 132.79210502 184.41863638v629.45925952a118.63947244 118.63947244 0 0 0 22.641789 70.07130176c1.27004233 1.97075527 3.06561978 3.89771631 4.90499066 6.43780097l0.61312446 0.70071295 1.27004232 1.27004233a123.58825818 123.58825818 0 0 0 92.49411785 41.64862967h956.34188113a103.1799916 103.1799916 0 0 0 100.46472831-82.1586006l0.65691788-1.88316676v-0.70071297a128.62463242 128.62463242 0 0 0 2.45249615-20.53965014V166.59424954c-1.27004233-5.08016932-1.88316596-10.86105157-3.15320911-17.99956549zM518.31564662 505.34519708l-115.35488059 108.43533875c-66.17358545 62.18827981-132.39096516 123.89481958-198.6521391 186.69622384V237.76041498L518.18426222 505.30140283z m412.5009927-1.27004232c104.18726596-88.59640155 207.235874-176.49209016 311.42313995-265.0009032v551.15458016l-130.59538769-119.99710327-180.74016377-166.15657369zM434.88700287 681.66210941l137.9966696-128.9749889c23.25491346 19.92652652 45.89670245 39.41510723 68.66987502 58.46574217 12.83180686 10.86105157 25.70740879 21.89728179 38.01368134 32.67074404l16.5543445 14.18943851a35.78015808 35.78015808 0 0 0 52.55347632 0c41.73621899-35.29841802 83.20967084-71.29754902 126.34731574-107.16529642l76.02736185 70.07130094c87.06359207 80.18784531 173.47026544 159.80636206 261.10318688 239.99420736H244.81859784c63.80867861-60.26131961 127.00423361-119.29639032 190.06840503-179.03217481z m288.080638-96.34803992Q561.23431861 447.66775721 399.93894132 309.40832046l-169.74772778-144.96000485c74.10040164-2.45249533 399.01226716-4.37945636 674.21730404-4.37945636 159.93774563 0 271.52629348 0.61312363 316.28433636 1.88316595l-497.68141799 423.53722294z" fill="#ffffff" p-id="2298"></path></svg>